<svg width="13" height="9" viewBox="0 0 13 9" fill="none" xmlns="http://www.w3.org/2000/svg">
<path d="M6.5 7.11579C7.23864 7.11579 7.86658 6.85646 8.38382 6.3378C8.90106 5.81913 9.15948 5.18899 9.15909 4.44737C9.1587 3.70574 8.90027 3.0758 8.38382 2.55753C7.86736 2.03927 7.23942 1.77974 6.5 1.77895C5.76058 1.77816 5.13283 2.03769 4.61677 2.55753C4.10071 3.07738 3.84209 3.70733 3.84091 4.44737C3.83973 5.18741 4.09835 5.81755 4.61677 6.3378C5.1352 6.85804 5.76294 7.11737 6.5 7.11579ZM6.5 6.04842C6.05682 6.04842 5.68021 5.89266 5.37018 5.58115C5.06015 5.26964 4.90494 4.89171 4.90455 4.44737C4.90415 4.00303 5.05936 3.6251 5.37018 3.31359C5.681 3.00207 6.05761 2.84632 6.5 2.84632C6.94239 2.84632 7.3192 3.00207 7.63041 3.31359C7.94162 3.6251 8.09664 4.00303 8.09546 4.44737C8.09427 4.89171 7.93926 5.26983 7.63041 5.58174C7.32156 5.89365 6.94476 6.04921 6.5 6.04842ZM6.5 8.89474C5.06212 8.89474 3.75227 8.4921 2.57045 7.68683C1.38864 6.88156 0.531818 5.80174 0 4.44737C0.531818 3.09339 1.38864 2.01377 2.57045 1.2085C3.75227 0.403228 5.06212 0.000395612 6.5 2.90678e-07C7.93788 -0.000395031 9.24773 0.402438 10.4295 1.2085C11.6114 2.01456 12.4682 3.09418 13 4.44737C12.4682 5.80134 11.6114 6.88116 10.4295 7.68683C9.24773 8.4925 7.93788 8.89513 6.5 8.89474ZM6.5 7.70877C7.61288 7.70877 8.63476 7.41485 9.56564 6.82701C10.4965 6.23916 11.208 5.44595 11.7 4.44737C11.2076 3.44918 10.4959 2.65617 9.56505 2.06832C8.63417 1.48048 7.61249 1.18636 6.5 1.18596C5.38752 1.18557 4.36583 1.47969 3.43495 2.06832C2.50408 2.65696 1.79242 3.44997 1.3 4.44737C1.79242 5.44555 2.50408 6.23877 3.43495 6.82701C4.36583 7.41524 5.38752 7.70917 6.5 7.70877Z" fill="#F4FAF9" fill-opacity="0.35"/>
</svg>
