<svg width="13" height="12" viewBox="0 0 13 12" fill="none" xmlns="http://www.w3.org/2000/svg">
<path d="M8.92273 6.20455L8.06591 5.34773C8.15455 4.88485 8.02159 4.45151 7.66705 4.04773C7.3125 3.64394 6.85455 3.48636 6.29318 3.575L5.43636 2.71818C5.60379 2.63939 5.77377 2.5803 5.94632 2.54091C6.11886 2.50152 6.30342 2.48182 6.5 2.48182C7.23864 2.48182 7.86658 2.74044 8.38382 3.25768C8.90106 3.77492 9.15949 4.40267 9.15909 5.14091C9.15909 5.33788 9.13939 5.52264 9.1 5.69518C9.06061 5.86773 9.00152 6.03752 8.92273 6.20455ZM10.8136 8.06591L9.95682 7.23864C10.3311 6.95303 10.6635 6.64044 10.9543 6.30086C11.245 5.96129 11.4936 5.57464 11.7 5.14091C11.2076 4.14621 10.5008 3.35597 9.57982 2.77018C8.65879 2.18439 7.63218 1.8913 6.5 1.89091C6.21439 1.89091 5.93371 1.91061 5.65795 1.95C5.3822 1.98939 5.11136 2.04848 4.84545 2.12727L3.92955 1.21136C4.33333 1.04394 4.74697 0.918273 5.17046 0.834364C5.59394 0.750454 6.03712 0.708697 6.5 0.709091C7.98712 0.709091 9.31174 1.12017 10.4739 1.94232C11.636 2.76447 12.478 3.83067 13 5.14091C12.7735 5.72197 12.4755 6.26127 12.106 6.75882C11.7364 7.25636 11.3057 7.69206 10.8136 8.06591ZM11.1091 11.7L8.62727 9.24773C8.28258 9.35606 7.93552 9.43741 7.58609 9.49177C7.23667 9.54614 6.87464 9.57312 6.5 9.57273C5.01288 9.57273 3.68826 9.16165 2.52614 8.3395C1.36402 7.51735 0.52197 6.45115 0 5.14091C0.206818 4.61894 0.467803 4.1338 0.782955 3.6855C1.09811 3.2372 1.45758 2.83597 1.86136 2.48182L0.236364 0.827273L1.06364 0L11.9364 10.8727L11.1091 11.7ZM2.68864 3.30909C2.40303 3.56515 2.14205 3.84583 1.90568 4.15114C1.66932 4.45644 1.46742 4.78636 1.3 5.14091C1.79242 6.13561 2.49915 6.92605 3.42018 7.51223C4.34121 8.09841 5.36782 8.3913 6.5 8.39091C6.69697 8.39091 6.88902 8.3787 7.07614 8.35427C7.26326 8.32985 7.4553 8.30267 7.65227 8.27273L7.12046 7.71136C7.01212 7.74091 6.90871 7.76317 6.81023 7.77814C6.71174 7.79311 6.60833 7.80039 6.5 7.8C5.76136 7.8 5.13342 7.54158 4.61618 7.02473C4.09894 6.50788 3.84052 5.87994 3.84091 5.14091C3.84091 5.03258 3.84839 4.92917 3.86336 4.83068C3.87833 4.7322 3.90039 4.62879 3.92955 4.52045L2.68864 3.30909Z" fill="#DBDEE0" fill-opacity="0.35"/>
</svg>
